<mxfile host="app.diagrams.net" agent="Mozilla/5.0 (Windows NT 10.0; Win64; x64) AppleWebKit/537.36 (KHTML, like Gecko) Chrome/122.0.0.0 Safari/537.36" version="26.2.9">
  <diagram name="1 oldal" id="YZfehszIa1fUYbXZiV1h">
    <mxGraphModel dx="1553" dy="1252" grid="1" gridSize="10" guides="1" tooltips="1" connect="1" arrows="1" fold="1" page="1" pageScale="1" pageWidth="827" pageHeight="1169" math="0" shadow="0">
      <root>
        <mxCell id="0" />
        <mxCell id="1" parent="0" />
        <mxCell id="GijJ9ujRoAqk-Taby9C6-1" value="Dropdown" style="rounded=0;whiteSpace=wrap;html=1;" vertex="1" parent="1">
          <mxGeometry x="1655" y="270" width="165" height="60" as="geometry" />
        </mxCell>
        <mxCell id="GijJ9ujRoAqk-Taby9C6-2" value="" style="rounded=0;whiteSpace=wrap;html=1;" vertex="1" parent="1">
          <mxGeometry x="1050" y="480" width="1080" height="480" as="geometry" />
        </mxCell>
        <mxCell id="GijJ9ujRoAqk-Taby9C6-3" value="" style="rounded=0;whiteSpace=wrap;html=1;" vertex="1" parent="1">
          <mxGeometry x="1050" y="480" width="1080" height="120" as="geometry" />
        </mxCell>
        <mxCell id="GijJ9ujRoAqk-Taby9C6-4" style="edgeStyle=orthogonalEdgeStyle;rounded=0;orthogonalLoop=1;jettySize=auto;html=1;exitX=0.5;exitY=0;exitDx=0;exitDy=0;" edge="1" parent="1" source="GijJ9ujRoAqk-Taby9C6-5">
          <mxGeometry relative="1" as="geometry">
            <mxPoint x="1590" y="939.9999999999998" as="targetPoint" />
          </mxGeometry>
        </mxCell>
        <mxCell id="GijJ9ujRoAqk-Taby9C6-5" value="" style="rounded=0;whiteSpace=wrap;html=1;" vertex="1" parent="1">
          <mxGeometry x="1050" y="939.9999999999998" width="1080" height="20" as="geometry" />
        </mxCell>
        <mxCell id="GijJ9ujRoAqk-Taby9C6-6" value="" style="rounded=0;whiteSpace=wrap;html=1;" vertex="1" parent="1">
          <mxGeometry x="2030" y="480" width="100" height="120" as="geometry" />
        </mxCell>
        <mxCell id="GijJ9ujRoAqk-Taby9C6-7" value="" style="rounded=0;whiteSpace=wrap;html=1;" vertex="1" parent="1">
          <mxGeometry x="1190" y="510" width="120" height="60" as="geometry" />
        </mxCell>
        <mxCell id="GijJ9ujRoAqk-Taby9C6-8" value="" style="rounded=0;whiteSpace=wrap;html=1;" vertex="1" parent="1">
          <mxGeometry x="1860" y="510" width="120" height="60" as="geometry" />
        </mxCell>
        <mxCell id="GijJ9ujRoAqk-Taby9C6-9" value="" style="rounded=0;whiteSpace=wrap;html=1;" vertex="1" parent="1">
          <mxGeometry x="1370" y="510" width="120" height="60" as="geometry" />
        </mxCell>
        <mxCell id="GijJ9ujRoAqk-Taby9C6-10" value="" style="rounded=0;whiteSpace=wrap;html=1;" vertex="1" parent="1">
          <mxGeometry x="1700" y="510" width="120" height="60" as="geometry" />
        </mxCell>
        <mxCell id="GijJ9ujRoAqk-Taby9C6-11" value="" style="rounded=0;whiteSpace=wrap;html=1;" vertex="1" parent="1">
          <mxGeometry x="1540" y="510" width="120" height="60" as="geometry" />
        </mxCell>
        <mxCell id="GijJ9ujRoAqk-Taby9C6-12" value="" style="rounded=0;whiteSpace=wrap;html=1;" vertex="1" parent="1">
          <mxGeometry x="2050" y="510" width="60" height="60" as="geometry" />
        </mxCell>
        <mxCell id="GijJ9ujRoAqk-Taby9C6-13" value="" style="rounded=0;whiteSpace=wrap;html=1;" vertex="1" parent="1">
          <mxGeometry x="1120" y="600" width="940" height="340" as="geometry" />
        </mxCell>
        <mxCell id="GijJ9ujRoAqk-Taby9C6-14" value="Kezdőlap" style="text;html=1;align=center;verticalAlign=middle;whiteSpace=wrap;rounded=0;" vertex="1" parent="1">
          <mxGeometry x="1190" y="510" width="120" height="60" as="geometry" />
        </mxCell>
        <mxCell id="GijJ9ujRoAqk-Taby9C6-15" value="" style="rounded=0;whiteSpace=wrap;html=1;" vertex="1" parent="1">
          <mxGeometry x="1070" y="510" width="60" height="60" as="geometry" />
        </mxCell>
        <mxCell id="GijJ9ujRoAqk-Taby9C6-16" value="&lt;div&gt;Logo&lt;/div&gt;" style="text;html=1;align=center;verticalAlign=middle;whiteSpace=wrap;rounded=0;" vertex="1" parent="1">
          <mxGeometry x="1070" y="510" width="60" height="60" as="geometry" />
        </mxCell>
        <mxCell id="GijJ9ujRoAqk-Taby9C6-17" value="Étel &amp;amp; Ital" style="text;html=1;align=center;verticalAlign=middle;whiteSpace=wrap;rounded=0;" vertex="1" parent="1">
          <mxGeometry x="1370" y="510" width="120" height="60" as="geometry" />
        </mxCell>
        <mxCell id="GijJ9ujRoAqk-Taby9C6-18" value="Társasok" style="text;html=1;align=center;verticalAlign=middle;whiteSpace=wrap;rounded=0;" vertex="1" parent="1">
          <mxGeometry x="1540" y="510" width="120" height="60" as="geometry" />
        </mxCell>
        <mxCell id="GijJ9ujRoAqk-Taby9C6-19" value="Foglalás" style="text;html=1;align=center;verticalAlign=middle;whiteSpace=wrap;rounded=0;" vertex="1" parent="1">
          <mxGeometry x="1700" y="510" width="120" height="60" as="geometry" />
        </mxCell>
        <mxCell id="GijJ9ujRoAqk-Taby9C6-20" value="Kapcsolat" style="text;html=1;align=center;verticalAlign=middle;whiteSpace=wrap;rounded=0;" vertex="1" parent="1">
          <mxGeometry x="1860" y="510" width="120" height="60" as="geometry" />
        </mxCell>
        <mxCell id="GijJ9ujRoAqk-Taby9C6-21" value="Profilom" style="text;html=1;align=center;verticalAlign=middle;whiteSpace=wrap;rounded=0;" vertex="1" parent="1">
          <mxGeometry x="2050" y="510" width="60" height="60" as="geometry" />
        </mxCell>
        <mxCell id="GijJ9ujRoAqk-Taby9C6-22" value="Footer (C)" style="text;html=1;align=center;verticalAlign=middle;whiteSpace=wrap;rounded=0;" vertex="1" parent="1">
          <mxGeometry x="1050" y="939.9999999999998" width="1080" height="20" as="geometry" />
        </mxCell>
        <mxCell id="GijJ9ujRoAqk-Taby9C6-23" value="margin" style="text;html=1;align=center;verticalAlign=middle;whiteSpace=wrap;rounded=0;" vertex="1" parent="1">
          <mxGeometry x="1050" y="600" width="70" height="340" as="geometry" />
        </mxCell>
        <mxCell id="GijJ9ujRoAqk-Taby9C6-24" value="margin" style="text;html=1;align=center;verticalAlign=middle;whiteSpace=wrap;rounded=0;" vertex="1" parent="1">
          <mxGeometry x="2060" y="600" width="70" height="340" as="geometry" />
        </mxCell>
        <mxCell id="GijJ9ujRoAqk-Taby9C6-25" value="" style="rounded=0;whiteSpace=wrap;html=1;" vertex="1" parent="1">
          <mxGeometry x="1320" y="600" width="530" height="340" as="geometry" />
        </mxCell>
        <mxCell id="GijJ9ujRoAqk-Taby9C6-26" value="Módosítások mentése" style="rounded=0;whiteSpace=wrap;html=1;" vertex="1" parent="1">
          <mxGeometry x="1525" y="853.9999999999998" width="120" height="40" as="geometry" />
        </mxCell>
        <mxCell id="GijJ9ujRoAqk-Taby9C6-27" value="Nyelv" style="rounded=0;whiteSpace=wrap;html=1;" vertex="1" parent="1">
          <mxGeometry x="1420" y="709.9999999999998" width="120" height="40" as="geometry" />
        </mxCell>
        <mxCell id="GijJ9ujRoAqk-Taby9C6-28" value="Beállítások" style="rounded=0;whiteSpace=wrap;html=1;" vertex="1" parent="1">
          <mxGeometry x="1390" y="630" width="400" height="40" as="geometry" />
        </mxCell>
        <mxCell id="GijJ9ujRoAqk-Taby9C6-29" value="X" style="rounded=0;whiteSpace=wrap;html=1;" vertex="1" parent="1">
          <mxGeometry x="1810" y="610" width="30" height="30" as="geometry" />
        </mxCell>
        <mxCell id="GijJ9ujRoAqk-Taby9C6-30" value="Sötét Mód" style="rounded=0;whiteSpace=wrap;html=1;" vertex="1" parent="1">
          <mxGeometry x="1630" y="709.9999999999998" width="120" height="40" as="geometry" />
        </mxCell>
        <mxCell id="GijJ9ujRoAqk-Taby9C6-31" style="edgeStyle=orthogonalEdgeStyle;rounded=0;orthogonalLoop=1;jettySize=auto;html=1;exitX=0.5;exitY=1;exitDx=0;exitDy=0;" edge="1" parent="1" source="GijJ9ujRoAqk-Taby9C6-27" target="GijJ9ujRoAqk-Taby9C6-27">
          <mxGeometry relative="1" as="geometry" />
        </mxCell>
        <mxCell id="GijJ9ujRoAqk-Taby9C6-32" value="" style="rounded=0;whiteSpace=wrap;html=1;" vertex="1" parent="1">
          <mxGeometry x="1050" y="480" width="1080" height="480" as="geometry" />
        </mxCell>
        <mxCell id="GijJ9ujRoAqk-Taby9C6-33" value="" style="rounded=0;whiteSpace=wrap;html=1;" vertex="1" parent="1">
          <mxGeometry x="1050" y="480" width="1080" height="120" as="geometry" />
        </mxCell>
        <mxCell id="GijJ9ujRoAqk-Taby9C6-34" style="edgeStyle=orthogonalEdgeStyle;rounded=0;orthogonalLoop=1;jettySize=auto;html=1;exitX=0.5;exitY=0;exitDx=0;exitDy=0;" edge="1" parent="1" source="GijJ9ujRoAqk-Taby9C6-35">
          <mxGeometry relative="1" as="geometry">
            <mxPoint x="1590" y="939.9999999999998" as="targetPoint" />
          </mxGeometry>
        </mxCell>
        <mxCell id="GijJ9ujRoAqk-Taby9C6-35" value="" style="rounded=0;whiteSpace=wrap;html=1;" vertex="1" parent="1">
          <mxGeometry x="1050" y="939.9999999999998" width="1080" height="20" as="geometry" />
        </mxCell>
        <mxCell id="GijJ9ujRoAqk-Taby9C6-36" value="" style="rounded=0;whiteSpace=wrap;html=1;" vertex="1" parent="1">
          <mxGeometry x="2030" y="480" width="100" height="120" as="geometry" />
        </mxCell>
        <mxCell id="GijJ9ujRoAqk-Taby9C6-37" value="" style="rounded=0;whiteSpace=wrap;html=1;" vertex="1" parent="1">
          <mxGeometry x="1120" y="600" width="940" height="340" as="geometry" />
        </mxCell>
        <mxCell id="GijJ9ujRoAqk-Taby9C6-38" value="" style="rounded=0;whiteSpace=wrap;html=1;" vertex="1" parent="1">
          <mxGeometry x="1070" y="510" width="60" height="60" as="geometry" />
        </mxCell>
        <mxCell id="GijJ9ujRoAqk-Taby9C6-39" value="&lt;div&gt;Logo&lt;/div&gt;" style="text;html=1;align=center;verticalAlign=middle;whiteSpace=wrap;rounded=0;" vertex="1" parent="1">
          <mxGeometry x="1070" y="510" width="60" height="60" as="geometry" />
        </mxCell>
        <mxCell id="GijJ9ujRoAqk-Taby9C6-40" value="Footer (C)" style="text;html=1;align=center;verticalAlign=middle;whiteSpace=wrap;rounded=0;" vertex="1" parent="1">
          <mxGeometry x="1050" y="939.9999999999998" width="1080" height="20" as="geometry" />
        </mxCell>
        <mxCell id="GijJ9ujRoAqk-Taby9C6-41" value="margin" style="text;html=1;align=center;verticalAlign=middle;whiteSpace=wrap;rounded=0;" vertex="1" parent="1">
          <mxGeometry x="1050" y="600" width="70" height="340" as="geometry" />
        </mxCell>
        <mxCell id="GijJ9ujRoAqk-Taby9C6-42" value="margin" style="text;html=1;align=center;verticalAlign=middle;whiteSpace=wrap;rounded=0;" vertex="1" parent="1">
          <mxGeometry x="2060" y="600" width="70" height="340" as="geometry" />
        </mxCell>
        <mxCell id="GijJ9ujRoAqk-Taby9C6-43" value="" style="rounded=0;whiteSpace=wrap;html=1;" vertex="1" parent="1">
          <mxGeometry x="1120" y="600" width="940" height="40" as="geometry" />
        </mxCell>
        <mxCell id="GijJ9ujRoAqk-Taby9C6-44" value="keresés..." style="rounded=0;whiteSpace=wrap;html=1;" vertex="1" parent="1">
          <mxGeometry x="1140" y="605" width="250" height="30" as="geometry" />
        </mxCell>
        <mxCell id="GijJ9ujRoAqk-Taby9C6-45" value="műfajnév" style="rounded=0;whiteSpace=wrap;html=1;" vertex="1" parent="1">
          <mxGeometry x="1130" y="659.9999999999998" width="120" height="30" as="geometry" />
        </mxCell>
        <mxCell id="GijJ9ujRoAqk-Taby9C6-46" value="" style="rounded=0;whiteSpace=wrap;html=1;" vertex="1" parent="1">
          <mxGeometry x="1150" y="710" width="200" height="180" as="geometry" />
        </mxCell>
        <mxCell id="GijJ9ujRoAqk-Taby9C6-47" value="kép" style="rounded=0;whiteSpace=wrap;html=1;" vertex="1" parent="1">
          <mxGeometry x="1160" y="729.9999999999998" width="90" height="80" as="geometry" />
        </mxCell>
        <mxCell id="GijJ9ujRoAqk-Taby9C6-48" value="cím" style="rounded=0;whiteSpace=wrap;html=1;" vertex="1" parent="1">
          <mxGeometry x="1257.5" y="714.9999999999998" width="80" height="30" as="geometry" />
        </mxCell>
        <mxCell id="GijJ9ujRoAqk-Taby9C6-49" value="ár" style="rounded=0;whiteSpace=wrap;html=1;" vertex="1" parent="1">
          <mxGeometry x="1257.5" y="793.9999999999998" width="80" height="30" as="geometry" />
        </mxCell>
        <mxCell id="GijJ9ujRoAqk-Taby9C6-50" value="" style="rounded=0;whiteSpace=wrap;html=1;" vertex="1" parent="1">
          <mxGeometry x="1370" y="710" width="200" height="180" as="geometry" />
        </mxCell>
        <mxCell id="GijJ9ujRoAqk-Taby9C6-51" value="kép" style="rounded=0;whiteSpace=wrap;html=1;" vertex="1" parent="1">
          <mxGeometry x="1380" y="729.9999999999998" width="90" height="80" as="geometry" />
        </mxCell>
        <mxCell id="GijJ9ujRoAqk-Taby9C6-52" value="ár" style="rounded=0;whiteSpace=wrap;html=1;" vertex="1" parent="1">
          <mxGeometry x="1477.5" y="797.4999999999998" width="80" height="30" as="geometry" />
        </mxCell>
        <mxCell id="GijJ9ujRoAqk-Taby9C6-53" value="" style="rounded=0;whiteSpace=wrap;html=1;" vertex="1" parent="1">
          <mxGeometry x="1590" y="710" width="200" height="180" as="geometry" />
        </mxCell>
        <mxCell id="GijJ9ujRoAqk-Taby9C6-54" value="kép" style="rounded=0;whiteSpace=wrap;html=1;" vertex="1" parent="1">
          <mxGeometry x="1600" y="729.9999999999998" width="90" height="80" as="geometry" />
        </mxCell>
        <mxCell id="GijJ9ujRoAqk-Taby9C6-55" value="ár" style="rounded=0;whiteSpace=wrap;html=1;" vertex="1" parent="1">
          <mxGeometry x="1702.5" y="797.4999999999998" width="80" height="30" as="geometry" />
        </mxCell>
        <mxCell id="GijJ9ujRoAqk-Taby9C6-56" value="" style="rounded=0;whiteSpace=wrap;html=1;" vertex="1" parent="1">
          <mxGeometry x="1820" y="710" width="200" height="180" as="geometry" />
        </mxCell>
        <mxCell id="GijJ9ujRoAqk-Taby9C6-57" value="kép" style="rounded=0;whiteSpace=wrap;html=1;" vertex="1" parent="1">
          <mxGeometry x="1830" y="729.9999999999998" width="90" height="80" as="geometry" />
        </mxCell>
        <mxCell id="GijJ9ujRoAqk-Taby9C6-58" value="ár" style="rounded=0;whiteSpace=wrap;html=1;" vertex="1" parent="1">
          <mxGeometry x="1932.5" y="797.4999999999998" width="80" height="30" as="geometry" />
        </mxCell>
        <mxCell id="GijJ9ujRoAqk-Taby9C6-59" value="" style="rounded=0;whiteSpace=wrap;html=1;" vertex="1" parent="1">
          <mxGeometry x="1150" y="894" width="200" height="186" as="geometry" />
        </mxCell>
        <mxCell id="GijJ9ujRoAqk-Taby9C6-60" value="kép" style="rounded=0;whiteSpace=wrap;html=1;" vertex="1" parent="1">
          <mxGeometry x="1160" y="913.9999999999998" width="90" height="80" as="geometry" />
        </mxCell>
        <mxCell id="GijJ9ujRoAqk-Taby9C6-61" value="ár" style="rounded=0;whiteSpace=wrap;html=1;" vertex="1" parent="1">
          <mxGeometry x="1260" y="979.9999999999998" width="80" height="30" as="geometry" />
        </mxCell>
        <mxCell id="GijJ9ujRoAqk-Taby9C6-62" value="" style="rounded=0;whiteSpace=wrap;html=1;" vertex="1" parent="1">
          <mxGeometry x="1590" y="890" width="200" height="190" as="geometry" />
        </mxCell>
        <mxCell id="GijJ9ujRoAqk-Taby9C6-63" value="kép" style="rounded=0;whiteSpace=wrap;html=1;" vertex="1" parent="1">
          <mxGeometry x="1600" y="909.9999999999998" width="90" height="80" as="geometry" />
        </mxCell>
        <mxCell id="GijJ9ujRoAqk-Taby9C6-64" value="ár" style="rounded=0;whiteSpace=wrap;html=1;" vertex="1" parent="1">
          <mxGeometry x="1702.5" y="973.9999999999998" width="80" height="30" as="geometry" />
        </mxCell>
        <mxCell id="GijJ9ujRoAqk-Taby9C6-65" value="" style="rounded=0;whiteSpace=wrap;html=1;" vertex="1" parent="1">
          <mxGeometry x="1370" y="890" width="200" height="190" as="geometry" />
        </mxCell>
        <mxCell id="GijJ9ujRoAqk-Taby9C6-66" value="kép" style="rounded=0;whiteSpace=wrap;html=1;" vertex="1" parent="1">
          <mxGeometry x="1380" y="909.9999999999998" width="90" height="80" as="geometry" />
        </mxCell>
        <mxCell id="GijJ9ujRoAqk-Taby9C6-67" value="ár" style="rounded=0;whiteSpace=wrap;html=1;" vertex="1" parent="1">
          <mxGeometry x="1480" y="973.9999999999998" width="80" height="30" as="geometry" />
        </mxCell>
        <mxCell id="GijJ9ujRoAqk-Taby9C6-68" value="műfajnév" style="rounded=0;whiteSpace=wrap;html=1;" vertex="1" parent="1">
          <mxGeometry x="1120" y="1089.9999999999998" width="120" height="30" as="geometry" />
        </mxCell>
        <mxCell id="GijJ9ujRoAqk-Taby9C6-69" value="" style="rounded=0;whiteSpace=wrap;html=1;" vertex="1" parent="1">
          <mxGeometry x="1150" y="1125" width="200" height="175" as="geometry" />
        </mxCell>
        <mxCell id="GijJ9ujRoAqk-Taby9C6-70" value="kép" style="rounded=0;whiteSpace=wrap;html=1;" vertex="1" parent="1">
          <mxGeometry x="1160" y="1139.9999999999998" width="90" height="80" as="geometry" />
        </mxCell>
        <mxCell id="GijJ9ujRoAqk-Taby9C6-71" value="ár" style="rounded=0;whiteSpace=wrap;html=1;" vertex="1" parent="1">
          <mxGeometry x="1265" y="1204" width="80" height="30" as="geometry" />
        </mxCell>
        <mxCell id="GijJ9ujRoAqk-Taby9C6-72" value="&amp;nbsp;Fiók Bej/Reg" style="rounded=0;whiteSpace=wrap;html=1;" vertex="1" parent="1">
          <mxGeometry x="2035" y="495" width="90" height="40" as="geometry" />
        </mxCell>
        <mxCell id="GijJ9ujRoAqk-Taby9C6-73" value="Profilom" style="rounded=0;whiteSpace=wrap;html=1;" vertex="1" parent="1">
          <mxGeometry x="2050" y="540" width="60" height="40" as="geometry" />
        </mxCell>
        <mxCell id="GijJ9ujRoAqk-Taby9C6-74" value="Kezdőlap" style="rounded=0;whiteSpace=wrap;html=1;" vertex="1" parent="1">
          <mxGeometry x="1145" y="510" width="120" height="60" as="geometry" />
        </mxCell>
        <mxCell id="GijJ9ujRoAqk-Taby9C6-75" value="Zenék" style="rounded=0;whiteSpace=wrap;html=1;" vertex="1" parent="1">
          <mxGeometry x="1290" y="510" width="120" height="60" as="geometry" />
        </mxCell>
        <mxCell id="GijJ9ujRoAqk-Taby9C6-76" value="Filmek/Sorozatok" style="rounded=0;whiteSpace=wrap;html=1;" vertex="1" parent="1">
          <mxGeometry x="1435" y="510" width="120" height="60" as="geometry" />
        </mxCell>
        <mxCell id="GijJ9ujRoAqk-Taby9C6-77" value="Rendelési kosár" style="rounded=0;whiteSpace=wrap;html=1;" vertex="1" parent="1">
          <mxGeometry x="1585" y="560" width="120" height="40" as="geometry" />
        </mxCell>
        <mxCell id="GijJ9ujRoAqk-Taby9C6-78" value="Foglalási kosár" style="rounded=0;whiteSpace=wrap;html=1;" vertex="1" parent="1">
          <mxGeometry x="1730" y="560" width="120" height="40" as="geometry" />
        </mxCell>
        <mxCell id="GijJ9ujRoAqk-Taby9C6-79" value="Kapcsolat" style="rounded=0;whiteSpace=wrap;html=1;" vertex="1" parent="1">
          <mxGeometry x="1880" y="510" width="120" height="60" as="geometry" />
        </mxCell>
        <mxCell id="GijJ9ujRoAqk-Taby9C6-80" value="cím" style="rounded=0;whiteSpace=wrap;html=1;" vertex="1" parent="1">
          <mxGeometry x="1480" y="714.9999999999998" width="80" height="30" as="geometry" />
        </mxCell>
        <mxCell id="GijJ9ujRoAqk-Taby9C6-81" value="cím" style="rounded=0;whiteSpace=wrap;html=1;" vertex="1" parent="1">
          <mxGeometry x="1705" y="714.9999999999998" width="80" height="30" as="geometry" />
        </mxCell>
        <mxCell id="GijJ9ujRoAqk-Taby9C6-82" value="cím" style="rounded=0;whiteSpace=wrap;html=1;" vertex="1" parent="1">
          <mxGeometry x="1932.5" y="714.9999999999998" width="80" height="30" as="geometry" />
        </mxCell>
        <mxCell id="GijJ9ujRoAqk-Taby9C6-83" value="cím" style="rounded=0;whiteSpace=wrap;html=1;" vertex="1" parent="1">
          <mxGeometry x="1260" y="899.9999999999998" width="80" height="30" as="geometry" />
        </mxCell>
        <mxCell id="GijJ9ujRoAqk-Taby9C6-84" value="cím" style="rounded=0;whiteSpace=wrap;html=1;" vertex="1" parent="1">
          <mxGeometry x="1480" y="893.9999999999998" width="80" height="30" as="geometry" />
        </mxCell>
        <mxCell id="GijJ9ujRoAqk-Taby9C6-85" value="cím" style="rounded=0;whiteSpace=wrap;html=1;" vertex="1" parent="1">
          <mxGeometry x="1700" y="893.9999999999998" width="80" height="30" as="geometry" />
        </mxCell>
        <mxCell id="GijJ9ujRoAqk-Taby9C6-86" value="cím" style="rounded=0;whiteSpace=wrap;html=1;" vertex="1" parent="1">
          <mxGeometry x="1265" y="1124.9999999999998" width="80" height="30" as="geometry" />
        </mxCell>
        <mxCell id="GijJ9ujRoAqk-Taby9C6-87" value="előadó" style="rounded=0;whiteSpace=wrap;html=1;" vertex="1" parent="1">
          <mxGeometry x="1480" y="751.9999999999998" width="75" height="36" as="geometry" />
        </mxCell>
        <mxCell id="GijJ9ujRoAqk-Taby9C6-88" value="előadó" style="rounded=0;whiteSpace=wrap;html=1;" vertex="1" parent="1">
          <mxGeometry x="1260" y="751.9999999999998" width="75" height="36" as="geometry" />
        </mxCell>
        <mxCell id="GijJ9ujRoAqk-Taby9C6-89" value="előadó" style="rounded=0;whiteSpace=wrap;html=1;" vertex="1" parent="1">
          <mxGeometry x="1705" y="751.9999999999998" width="75" height="36" as="geometry" />
        </mxCell>
        <mxCell id="GijJ9ujRoAqk-Taby9C6-90" value="előadó" style="rounded=0;whiteSpace=wrap;html=1;" vertex="1" parent="1">
          <mxGeometry x="1932.5" y="751.9999999999998" width="75" height="36" as="geometry" />
        </mxCell>
        <mxCell id="GijJ9ujRoAqk-Taby9C6-91" value="előadó" style="rounded=0;whiteSpace=wrap;html=1;" vertex="1" parent="1">
          <mxGeometry x="1262.5" y="935.9999999999998" width="75" height="36" as="geometry" />
        </mxCell>
        <mxCell id="GijJ9ujRoAqk-Taby9C6-92" value="előadó" style="rounded=0;whiteSpace=wrap;html=1;" vertex="1" parent="1">
          <mxGeometry x="1482.5" y="929.9999999999998" width="75" height="36" as="geometry" />
        </mxCell>
        <mxCell id="GijJ9ujRoAqk-Taby9C6-93" value="előadó" style="rounded=0;whiteSpace=wrap;html=1;" vertex="1" parent="1">
          <mxGeometry x="1702.5" y="929.9999999999998" width="75" height="36" as="geometry" />
        </mxCell>
        <mxCell id="GijJ9ujRoAqk-Taby9C6-94" value="előadó" style="rounded=0;whiteSpace=wrap;html=1;" vertex="1" parent="1">
          <mxGeometry x="1267.5" y="1161.9999999999998" width="75" height="36" as="geometry" />
        </mxCell>
        <mxCell id="GijJ9ujRoAqk-Taby9C6-95" value="Kosár" style="rounded=0;whiteSpace=wrap;html=1;" vertex="1" parent="1">
          <mxGeometry x="1585" y="510" width="265" height="60" as="geometry" />
        </mxCell>
        <mxCell id="GijJ9ujRoAqk-Taby9C6-96" value="Nyelv" style="rounded=0;whiteSpace=wrap;html=1;" vertex="1" parent="1">
          <mxGeometry x="1620" y="607.5" width="120" height="25" as="geometry" />
        </mxCell>
        <mxCell id="GijJ9ujRoAqk-Taby9C6-97" value="Műfaj" style="rounded=0;whiteSpace=wrap;html=1;" vertex="1" parent="1">
          <mxGeometry x="1430" y="605" width="120" height="25" as="geometry" />
        </mxCell>
        <mxCell id="GijJ9ujRoAqk-Taby9C6-99" value="Ár" style="rounded=0;whiteSpace=wrap;html=1;" vertex="1" parent="1">
          <mxGeometry x="1950" y="605" width="100" height="25" as="geometry" />
        </mxCell>
        <mxCell id="GijJ9ujRoAqk-Taby9C6-100" value="Formátum" style="rounded=0;whiteSpace=wrap;html=1;" vertex="1" parent="1">
          <mxGeometry x="1785" y="607.5" width="120" height="25" as="geometry" />
        </mxCell>
        <mxCell id="GijJ9ujRoAqk-Taby9C6-101" value="darabszám" style="rounded=0;whiteSpace=wrap;html=1;" vertex="1" parent="1">
          <mxGeometry x="1160" y="824" width="90" height="30" as="geometry" />
        </mxCell>
        <mxCell id="GijJ9ujRoAqk-Taby9C6-102" value="darabszám" style="rounded=0;whiteSpace=wrap;html=1;" vertex="1" parent="1">
          <mxGeometry x="1380" y="824" width="90" height="30" as="geometry" />
        </mxCell>
        <mxCell id="GijJ9ujRoAqk-Taby9C6-103" value="darabszám" style="rounded=0;whiteSpace=wrap;html=1;" vertex="1" parent="1">
          <mxGeometry x="1600" y="824" width="90" height="30" as="geometry" />
        </mxCell>
        <mxCell id="GijJ9ujRoAqk-Taby9C6-104" value="darabszám" style="rounded=0;whiteSpace=wrap;html=1;" vertex="1" parent="1">
          <mxGeometry x="1830" y="824" width="90" height="30" as="geometry" />
        </mxCell>
        <mxCell id="GijJ9ujRoAqk-Taby9C6-105" value="darabszám" style="rounded=0;whiteSpace=wrap;html=1;" vertex="1" parent="1">
          <mxGeometry x="1160" y="1008" width="90" height="30" as="geometry" />
        </mxCell>
        <mxCell id="GijJ9ujRoAqk-Taby9C6-106" value="darabszám" style="rounded=0;whiteSpace=wrap;html=1;" vertex="1" parent="1">
          <mxGeometry x="1380" y="1004" width="90" height="30" as="geometry" />
        </mxCell>
        <mxCell id="GijJ9ujRoAqk-Taby9C6-107" value="darabszám" style="rounded=0;whiteSpace=wrap;html=1;" vertex="1" parent="1">
          <mxGeometry x="1600" y="1004" width="90" height="30" as="geometry" />
        </mxCell>
        <mxCell id="GijJ9ujRoAqk-Taby9C6-108" value="darabszám" style="rounded=0;whiteSpace=wrap;html=1;" vertex="1" parent="1">
          <mxGeometry x="1160" y="1234" width="90" height="30" as="geometry" />
        </mxCell>
        <mxCell id="GijJ9ujRoAqk-Taby9C6-109" value="formátum" style="rounded=0;whiteSpace=wrap;html=1;" vertex="1" parent="1">
          <mxGeometry x="1260" y="830" width="80" height="30" as="geometry" />
        </mxCell>
        <mxCell id="GijJ9ujRoAqk-Taby9C6-110" value="formátum" style="rounded=0;whiteSpace=wrap;html=1;" vertex="1" parent="1">
          <mxGeometry x="1480" y="830" width="80" height="30" as="geometry" />
        </mxCell>
        <mxCell id="GijJ9ujRoAqk-Taby9C6-111" value="formátum" style="rounded=0;whiteSpace=wrap;html=1;" vertex="1" parent="1">
          <mxGeometry x="1702.5" y="830" width="80" height="30" as="geometry" />
        </mxCell>
        <mxCell id="GijJ9ujRoAqk-Taby9C6-112" value="formátum" style="rounded=0;whiteSpace=wrap;html=1;" vertex="1" parent="1">
          <mxGeometry x="1932.5" y="830" width="80" height="30" as="geometry" />
        </mxCell>
        <mxCell id="GijJ9ujRoAqk-Taby9C6-113" value="formátum" style="rounded=0;whiteSpace=wrap;html=1;" vertex="1" parent="1">
          <mxGeometry x="1260" y="1020" width="80" height="30" as="geometry" />
        </mxCell>
        <mxCell id="GijJ9ujRoAqk-Taby9C6-114" value="formátum" style="rounded=0;whiteSpace=wrap;html=1;" vertex="1" parent="1">
          <mxGeometry x="1480" y="1010" width="80" height="30" as="geometry" />
        </mxCell>
        <mxCell id="GijJ9ujRoAqk-Taby9C6-115" value="formátum" style="rounded=0;whiteSpace=wrap;html=1;" vertex="1" parent="1">
          <mxGeometry x="1702.5" y="1010" width="80" height="30" as="geometry" />
        </mxCell>
        <mxCell id="GijJ9ujRoAqk-Taby9C6-116" value="formátum" style="rounded=0;whiteSpace=wrap;html=1;" vertex="1" parent="1">
          <mxGeometry x="1262.5" y="1240" width="80" height="30" as="geometry" />
        </mxCell>
        <mxCell id="GijJ9ujRoAqk-Taby9C6-117" value="" style="html=1;shadow=0;dashed=0;align=center;verticalAlign=middle;shape=mxgraph.arrows2.arrow;dy=0.6;dx=40;direction=south;notch=0;" vertex="1" parent="1">
          <mxGeometry x="1720" y="612.5" width="20" height="20" as="geometry" />
        </mxCell>
        <mxCell id="GijJ9ujRoAqk-Taby9C6-118" value="" style="shape=flexArrow;endArrow=classic;html=1;rounded=0;entryX=0.315;entryY=0.983;entryDx=0;entryDy=0;entryPerimeter=0;" edge="1" parent="1" source="GijJ9ujRoAqk-Taby9C6-117" target="GijJ9ujRoAqk-Taby9C6-1">
          <mxGeometry width="50" height="50" relative="1" as="geometry">
            <mxPoint x="305.5" y="779" as="sourcePoint" />
            <mxPoint x="1140" y="380" as="targetPoint" />
          </mxGeometry>
        </mxCell>
        <mxCell id="GijJ9ujRoAqk-Taby9C6-119" value="" style="html=1;shadow=0;dashed=0;align=center;verticalAlign=middle;shape=mxgraph.arrows2.arrow;dy=0.6;dx=40;direction=south;notch=0;" vertex="1" parent="1">
          <mxGeometry x="1520" y="607.5" width="20" height="20" as="geometry" />
        </mxCell>
        <mxCell id="GijJ9ujRoAqk-Taby9C6-121" value="" style="html=1;shadow=0;dashed=0;align=center;verticalAlign=middle;shape=mxgraph.arrows2.arrow;dy=0.6;dx=40;direction=south;notch=0;" vertex="1" parent="1">
          <mxGeometry x="1880" y="610" width="20" height="20" as="geometry" />
        </mxCell>
        <mxCell id="GijJ9ujRoAqk-Taby9C6-122" value="" style="html=1;shadow=0;dashed=0;align=center;verticalAlign=middle;shape=mxgraph.arrows2.arrow;dy=0.6;dx=40;direction=south;notch=0;" vertex="1" parent="1">
          <mxGeometry x="2020" y="607.5" width="20" height="20" as="geometry" />
        </mxCell>
        <mxCell id="GijJ9ujRoAqk-Taby9C6-123" value="" style="shape=flexArrow;endArrow=classic;html=1;rounded=0;entryX=0;entryY=0.75;entryDx=0;entryDy=0;" edge="1" parent="1" source="GijJ9ujRoAqk-Taby9C6-119" target="GijJ9ujRoAqk-Taby9C6-1">
          <mxGeometry width="50" height="50" relative="1" as="geometry">
            <mxPoint x="1531" y="618" as="sourcePoint" />
            <mxPoint x="1688" y="342" as="targetPoint" />
          </mxGeometry>
        </mxCell>
        <mxCell id="GijJ9ujRoAqk-Taby9C6-125" value="" style="shape=flexArrow;endArrow=classic;html=1;rounded=0;entryX=0.75;entryY=1;entryDx=0;entryDy=0;exitX=0.415;exitY=0.588;exitDx=0;exitDy=0;exitPerimeter=0;" edge="1" parent="1" source="GijJ9ujRoAqk-Taby9C6-121" target="GijJ9ujRoAqk-Taby9C6-1">
          <mxGeometry width="50" height="50" relative="1" as="geometry">
            <mxPoint x="1551" y="638" as="sourcePoint" />
            <mxPoint x="1708" y="362" as="targetPoint" />
          </mxGeometry>
        </mxCell>
        <mxCell id="GijJ9ujRoAqk-Taby9C6-126" value="" style="shape=flexArrow;endArrow=classic;html=1;rounded=0;entryX=1;entryY=1;entryDx=0;entryDy=0;exitX=0.453;exitY=0.311;exitDx=0;exitDy=0;exitPerimeter=0;" edge="1" parent="1" source="GijJ9ujRoAqk-Taby9C6-122" target="GijJ9ujRoAqk-Taby9C6-1">
          <mxGeometry width="50" height="50" relative="1" as="geometry">
            <mxPoint x="1561" y="648" as="sourcePoint" />
            <mxPoint x="1718" y="372" as="targetPoint" />
          </mxGeometry>
        </mxCell>
        <mxCell id="GijJ9ujRoAqk-Taby9C6-127" value="Kosárba helyezés" style="rounded=0;whiteSpace=wrap;html=1;" vertex="1" parent="1">
          <mxGeometry x="1190" y="866.5" width="120" height="23.5" as="geometry" />
        </mxCell>
        <mxCell id="GijJ9ujRoAqk-Taby9C6-128" value="Kosárba helyezés" style="rounded=0;whiteSpace=wrap;html=1;" vertex="1" parent="1">
          <mxGeometry x="1405" y="866.5" width="120" height="23.5" as="geometry" />
        </mxCell>
        <mxCell id="GijJ9ujRoAqk-Taby9C6-129" value="Kosárba helyezés" style="rounded=0;whiteSpace=wrap;html=1;" vertex="1" parent="1">
          <mxGeometry x="1628" y="866.5" width="120" height="23.5" as="geometry" />
        </mxCell>
        <mxCell id="GijJ9ujRoAqk-Taby9C6-130" value="Kosárba helyezés" style="rounded=0;whiteSpace=wrap;html=1;" vertex="1" parent="1">
          <mxGeometry x="1860" y="862.25" width="120" height="23.5" as="geometry" />
        </mxCell>
        <mxCell id="GijJ9ujRoAqk-Taby9C6-131" value="Kosárba helyezés" style="rounded=0;whiteSpace=wrap;html=1;" vertex="1" parent="1">
          <mxGeometry x="1190" y="1056.5" width="120" height="23.5" as="geometry" />
        </mxCell>
        <mxCell id="GijJ9ujRoAqk-Taby9C6-132" value="Kosárba helyezés" style="rounded=0;whiteSpace=wrap;html=1;" vertex="1" parent="1">
          <mxGeometry x="1420" y="1050" width="120" height="23.5" as="geometry" />
        </mxCell>
        <mxCell id="GijJ9ujRoAqk-Taby9C6-133" value="Kosárba helyezés" style="rounded=0;whiteSpace=wrap;html=1;" vertex="1" parent="1">
          <mxGeometry x="1630" y="1050" width="120" height="23.5" as="geometry" />
        </mxCell>
        <mxCell id="GijJ9ujRoAqk-Taby9C6-134" value="Kosárba helyezés" style="rounded=0;whiteSpace=wrap;html=1;" vertex="1" parent="1">
          <mxGeometry x="1190" y="1276.5" width="120" height="23.5" as="geometry" />
        </mxCell>
      </root>
    </mxGraphModel>
  </diagram>
</mxfile>
